<?xml version="1.0" encoding="UTF-8" standalone="no"?>
<svg
   id="Layer_1"
   data-name="Layer 1"
   viewBox="0 0 307.10996 63.999998"
   version="1.1"
   sodipodi:docname="jugubell-official-logo-2025.svg"
   width="307.10995"
   height="64"
   inkscape:version="1.4.2 (ebf0e940d0, 2025-05-08)"
   xmlns:inkscape="http://www.inkscape.org/namespaces/inkscape"
   xmlns:sodipodi="http://sodipodi.sourceforge.net/DTD/sodipodi-0.dtd"
   xmlns="http://www.w3.org/2000/svg"
   xmlns:svg="http://www.w3.org/2000/svg"
   xmlns:rdf="http://www.w3.org/1999/02/22-rdf-syntax-ns#"
   xmlns:cc="http://creativecommons.org/ns#"
   xmlns:dc="http://purl.org/dc/elements/1.1/">
  <sodipodi:namedview
     id="namedview10"
     pagecolor="#ffffff"
     bordercolor="#000000"
     borderopacity="0.25"
     inkscape:showpageshadow="2"
     inkscape:pageopacity="0.0"
     inkscape:pagecheckerboard="0"
     inkscape:deskcolor="#d1d1d1"
     inkscape:zoom="1.991731"
     inkscape:cx="95.896484"
     inkscape:cy="63.261555"
     inkscape:window-width="1920"
     inkscape:window-height="1011"
     inkscape:window-x="0"
     inkscape:window-y="0"
     inkscape:window-maximized="1"
     inkscape:current-layer="Layer_1" />
  <defs
     id="defs1">
    <style
       id="style1">.cls-1{fill:#799bb7;}.cls-2{fill:#ed3b25;}.cls-3{fill:#fff;}</style>
  </defs>
  <title
     id="title1">jugubell-official-logo-2025</title>
  <g
     id="g10"
     transform="scale(1.220919)">
    <path
       class="cls-1"
       d="m 101.16,27.18 v 21.87 a 8.44,8.44 0 0 1 -2.47,6.42 10.08,10.08 0 0 1 -13,0 8.44,8.44 0 0 1 -2.47,-6.42 h 5 a 5,5 0 0 0 1,3.19 3.54,3.54 0 0 0 2.9,1.18 3.59,3.59 0 0 0 2.92,-1.2 4.78,4.78 0 0 0 1,-3.17 V 27.18 Z"
       transform="translate(-16.99,-16.99)"
       id="path1" />
    <path
       class="cls-1"
       d="m 131,33.47 v 24.05 h -5 v -2.84 a 8,8 0 0 1 -3,2.32 9.68,9.68 0 0 1 -4,0.85 10.73,10.73 0 0 1 -5.09,-1.18 8.5,8.5 0 0 1 -3.54,-3.49 A 11.43,11.43 0 0 1 109,47.61 V 33.47 h 5 v 13.4 a 7,7 0 0 0 1.61,5 6.54,6.54 0 0 0 8.84,0 6.91,6.91 0 0 0 1.64,-5 v -13.4 z"
       transform="translate(-16.99,-16.99)"
       id="path2" />
    <path
       class="cls-1"
       d="m 152.21,34.19 a 9.5,9.5 0 0 1 3.38,2.81 v -3.53 h 5 v 24.44 a 12.3,12.3 0 0 1 -1.4,5.92 10.1,10.1 0 0 1 -4,4.08 12.67,12.67 0 0 1 -6.31,1.49 13.69,13.69 0 0 1 -8.12,-2.3 8.44,8.44 0 0 1 -3.66,-6.22 h 4.9 a 5.36,5.36 0 0 0 2.42,3 8.21,8.21 0 0 0 4.43,1.15 6.64,6.64 0 0 0 4.87,-1.83 7.15,7.15 0 0 0 1.85,-5.33 v -4 a 10.13,10.13 0 0 1 -3.42,2.86 10.26,10.26 0 0 1 -4.91,1.15 10.76,10.76 0 0 1 -5.74,-1.59 11.2,11.2 0 0 1 -4.11,-4.45 13.76,13.76 0 0 1 -1.5,-6.48 13.35,13.35 0 0 1 1.5,-6.42 11,11 0 0 1 4.11,-4.34 10.91,10.91 0 0 1 5.74,-1.55 10.68,10.68 0 0 1 4.97,1.14 z m 2.36,7 a 7.16,7.16 0 0 0 -2.69,-2.79 7,7 0 0 0 -3.58,-1 7.12,7.12 0 0 0 -3.58,0.94 7,7 0 0 0 -2.72,2.75 8.61,8.61 0 0 0 -1,4.3 9,9 0 0 0 1,4.36 7.2,7.2 0 0 0 2.71,2.86 6.86,6.86 0 0 0 3.55,1 7,7 0 0 0 3.58,-1 7.15,7.15 0 0 0 2.69,-2.81 8.91,8.91 0 0 0 1,-4.35 8.73,8.73 0 0 0 -0.96,-4.3 z"
       transform="translate(-16.99,-16.99)"
       id="path3" />
    <path
       class="cls-1"
       d="m 189,33.47 v 24.05 h -5 v -2.84 a 8.09,8.09 0 0 1 -3.11,2.32 9.69,9.69 0 0 1 -4,0.85 10.72,10.72 0 0 1 -5.08,-1.18 8.5,8.5 0 0 1 -3.54,-3.49 11.32,11.32 0 0 1 -1.29,-5.59 V 33.47 h 4.94 v 13.4 a 7,7 0 0 0 1.61,5 5.79,5.79 0 0 0 4.41,1.72 5.85,5.85 0 0 0 4.43,-1.72 7,7 0 0 0 1.64,-5 v -13.4 z"
       transform="translate(-16.99,-16.99)"
       id="path4" />
    <path
       class="cls-1"
       d="m 203.94,34.19 a 10.77,10.77 0 0 1 4.91,-1.11 11.08,11.08 0 0 1 5.77,1.52 10.72,10.72 0 0 1 4,4.35 13.57,13.57 0 0 1 1.49,6.44 13.87,13.87 0 0 1 -1.49,6.48 11,11 0 0 1 -4.08,4.45 11.43,11.43 0 0 1 -10.69,0.5 9.47,9.47 0 0 1 -3.38,-2.82 v 3.49 h -5 V 25.22 h 5 v 11.83 a 9.33,9.33 0 0 1 3.47,-2.86 z m 10.13,6.9 a 7,7 0 0 0 -2.71,-2.75 7.22,7.22 0 0 0 -3.6,-0.94 7.12,7.12 0 0 0 -6.26,3.75 8.63,8.63 0 0 0 -1,4.32 8.8,8.8 0 0 0 1,4.35 7.08,7.08 0 0 0 6.26,3.77 7,7 0 0 0 3.6,-1 7.2,7.2 0 0 0 2.71,-2.86 9,9 0 0 0 1,-4.36 8.61,8.61 0 0 0 -1,-4.28 z"
       transform="translate(-16.99,-16.99)"
       id="path5" />
    <path
       class="cls-1"
       d="m 247,47.35 h -18.42 a 6.62,6.62 0 0 0 6.86,6.37 5.81,5.81 0 0 0 5.67,-3.36 h 5.37 a 10.84,10.84 0 0 1 -3.95,5.44 11.58,11.58 0 0 1 -7.09,2.11 12.32,12.32 0 0 1 -6.18,-1.54 A 11.11,11.11 0 0 1 225,52 a 13.36,13.36 0 0 1 -1.55,-6.53 13.64,13.64 0 0 1 1.49,-6.47 10.56,10.56 0 0 1 4.23,-4.35 12.6,12.6 0 0 1 6.27,-1.52 12.26,12.26 0 0 1 6.07,1.48 10.51,10.51 0 0 1 4.14,4.17 12.56,12.56 0 0 1 1.49,6.18 15.08,15.08 0 0 1 -0.14,2.39 z m -5,-4 a 5.64,5.64 0 0 0 -2,-4.4 7,7 0 0 0 -4.76,-1.66 6.39,6.39 0 0 0 -4.41,1.63 6.84,6.84 0 0 0 -2.18,4.43 z"
       transform="translate(-16.99,-16.99)"
       id="path6" />
    <path
       class="cls-1"
       d="m 257,25.22 v 32.3 h -5 v -32.3 z"
       transform="translate(-16.99,-16.99)"
       id="path7" />
    <path
       class="cls-1"
       d="m 268.53,25.22 v 32.3 h -5 v -32.3 z"
       transform="translate(-16.99,-16.99)"
       id="path8" />
    <rect
       class="cls-2"
       width="50.98"
       height="50.98"
       id="rect8"
       x="0"
       y="0" />
    <path
       class="cls-3"
       d="m 44.45,41.16 v 1.3 a 18.15,18.15 0 0 1 -0.1,2 c 0,0 0,0.09 0,0.14 a 14.08,14.08 0 0 1 11.23,12 14.11,14.11 0 0 1 -11.58,-9.84 18,18 0 0 1 -1.71,4.52 17.44,17.44 0 0 0 15.13,8.78 h 1.7 V 58.37 A 17.48,17.48 0 0 0 44.45,41.16 Z"
       transform="translate(-16.99,-16.99)"
       id="path9" />
    <path
       class="cls-3"
       d="m 42.36,25.19 a 1,1 0 0 1 1,1 v 16.28 c 0,0.62 0,1.24 -0.09,1.85 A 17.46,17.46 0 0 1 25.89,59.9 v -3.39 a 14.06,14.06 0 0 0 14,-14 v -13 a 1,1 0 0 0 -1,-1 H 32 v -3.32 z"
       transform="translate(-16.99,-16.99)"
       id="path10" />
    <circle
       class="cls-3"
       cx="31.209999"
       cy="9.8699999"
       r="1.97"
       id="circle10" />
  </g>
  <metadata
     id="metadata10">
    <rdf:RDF>
      <cc:Work
         rdf:about="">
        <dc:title>jugubell-official-logo-2025</dc:title>
      </cc:Work>
    </rdf:RDF>
  </metadata>
</svg>
