<?xml version="1.0" encoding="utf-8"?>
<!-- Generator: Adobe Illustrator 23.0.3, SVG Export Plug-In . SVG Version: 6.00 Build 0)  -->
<svg version="1.1" id="Layer_1" xmlns="http://www.w3.org/2000/svg" xmlns:xlink="http://www.w3.org/1999/xlink" x="0px" y="0px"
	 viewBox="0 0 85 85" style="enable-background:new 0 0 85 85;" xml:space="preserve">
<style type="text/css">
	.st0{fill:#ED3B25;}
	.st1{fill:#FFFFFF;}
</style>
<title>jugubell-official-logo-2025</title>
<g>
	<rect x="17" y="17" class="st0" width="51" height="51"/>
	<path class="st1" d="M44.5,41.2v1.3c0,0.7,0,1.3-0.1,2c0,0,0,0.1,0,0.1c5.9,1.2,10.5,6,11.2,12c-5.4-0.7-10-4.6-11.6-9.8
		c-0.4,1.6-0.9,3.1-1.7,4.5c3.1,5.4,8.9,8.8,15.1,8.8h1.7v-1.7C59.1,49.8,52.9,42.5,44.5,41.2z"/>
	<path class="st1" d="M42.4,25.2c0.6,0,1,0.4,1,1v16.3c0,0.6,0,1.2-0.1,1.8c-1,8.9-8.5,15.6-17.4,15.6v-3.4c7.7,0,14-6.3,14-14v-13
		c0-0.6-0.4-1-1-1H32v-3.3H42.4z"/>
	<circle class="st1" cx="48.2" cy="26.9" r="2"/>
</g>
</svg>
